<svg width="22" height="22" viewBox="0 0 22 22" fill="none" xmlns="http://www.w3.org/2000/svg">
<path d="M5.50008 20.1666C4.99591 20.1666 4.56432 19.9871 4.20529 19.628C3.84626 19.269 3.66675 18.8374 3.66675 18.3333V7.33325C3.66675 6.82908 3.84626 6.39749 4.20529 6.03846C4.56432 5.67943 4.99591 5.49992 5.50008 5.49992H7.33341C7.33341 4.49159 7.69244 3.62839 8.4105 2.91034C9.12855 2.19228 9.99175 1.83325 11.0001 1.83325C12.0084 1.83325 12.8716 2.19228 13.5897 2.91034C14.3077 3.62839 14.6667 4.49159 14.6667 5.49992H16.5001C17.0042 5.49992 17.4358 5.67943 17.7949 6.03846C18.1539 6.39749 18.3334 6.82908 18.3334 7.33325V18.3333C18.3334 18.8374 18.1539 19.269 17.7949 19.628C17.4358 19.9871 17.0042 20.1666 16.5001 20.1666H5.50008ZM5.50008 18.3333H16.5001V7.33325H14.6667V9.16658C14.6667 9.42631 14.5789 9.64402 14.4032 9.81971C14.2275 9.9954 14.0098 10.0833 13.7501 10.0833C13.4904 10.0833 13.2727 9.9954 13.097 9.81971C12.9213 9.64402 12.8334 9.42631 12.8334 9.16658V7.33325H9.16675V9.16658C9.16675 9.42631 9.0789 9.64402 8.90321 9.81971C8.72751 9.9954 8.5098 10.0833 8.25008 10.0833C7.99036 10.0833 7.77265 9.9954 7.59696 9.81971C7.42126 9.64402 7.33341 9.42631 7.33341 9.16658V7.33325H5.50008V18.3333ZM9.16675 5.49992H12.8334C12.8334 4.99575 12.6539 4.56415 12.2949 4.20513C11.9358 3.8461 11.5042 3.66659 11.0001 3.66659C10.4959 3.66659 10.0643 3.8461 9.70529 4.20513C9.34626 4.56415 9.16675 4.99575 9.16675 5.49992Z" fill="black"/>
</svg>
