<svg width="20" height="20" viewBox="0 0 20 20" fill="none" xmlns="http://www.w3.org/2000/svg">
<path d="M10.3333 15.2917L9.125 14.2083C7.72222 12.9444 6.5625 11.8542 5.64583 10.9375C4.72917 10.0208 4 9.19792 3.45833 8.46875C2.91667 7.73958 2.53819 7.06944 2.32292 6.45833C2.10764 5.84722 2 5.22222 2 4.58333C2 3.27778 2.4375 2.1875 3.3125 1.3125C4.1875 0.4375 5.27778 0 6.58333 0C7.30556 0 7.99306 0.152778 8.64583 0.458333C9.29861 0.763889 9.86111 1.19444 10.3333 1.75C10.8056 1.19444 11.3681 0.763889 12.0208 0.458333C12.6736 0.152778 13.3611 0 14.0833 0C15.3889 0 16.4792 0.4375 17.3542 1.3125C18.2292 2.1875 18.6667 3.27778 18.6667 4.58333C18.6667 5.22222 18.559 5.84722 18.3437 6.45833C18.1285 7.06944 17.75 7.73958 17.2083 8.46875C16.6667 9.19792 15.9375 10.0208 15.0208 10.9375C14.1042 11.8542 12.9444 12.9444 11.5417 14.2083L10.3333 15.2917ZM10.3333 13.0417C11.6667 11.8472 12.7639 10.8229 13.625 9.96875C14.4861 9.11458 15.1667 8.37153 15.6667 7.73958C16.1667 7.10764 16.5139 6.54514 16.7083 6.05208C16.9028 5.55903 17 5.06944 17 4.58333C17 3.75 16.7222 3.05556 16.1667 2.5C15.6111 1.94444 14.9167 1.66667 14.0833 1.66667C13.4306 1.66667 12.8264 1.85069 12.2708 2.21875C11.7153 2.58681 11.3333 3.05556 11.125 3.625H9.54167C9.33333 3.05556 8.95139 2.58681 8.39583 2.21875C7.84028 1.85069 7.23611 1.66667 6.58333 1.66667C5.75 1.66667 5.05556 1.94444 4.5 2.5C3.94444 3.05556 3.66667 3.75 3.66667 4.58333C3.66667 5.06944 3.76389 5.55903 3.95833 6.05208C4.15278 6.54514 4.5 7.10764 5 7.73958C5.5 8.37153 6.18056 9.11458 7.04167 9.96875C7.90278 10.8229 9 11.8472 10.3333 13.0417Z" fill="black"/>
</svg>
