<svg width="687" height="298" viewBox="0 0 687 298" fill="none" xmlns="http://www.w3.org/2000/svg">
<path d="M120.634 179.458V239.127H144.086V216.191H159.26V239.127H182.712V179.458C182.712 179.027 182.54 178.51 182.195 177.906C181.85 177.216 181.419 176.656 180.988 176.182C180.514 175.621 179.953 175.147 179.263 174.802C178.66 174.371 178.143 174.112 177.711 174.112H125.635C125.031 174.112 124.471 174.371 123.91 174.802C123.307 175.147 122.789 175.621 122.358 176.182C121.884 176.656 121.496 177.216 121.151 177.906C120.806 178.51 120.634 179.027 120.634 179.458ZM159.26 182.907V210.328H144.086V182.907C144.086 182.347 144.344 181.7 144.948 181.01C145.638 180.321 146.241 179.976 146.845 179.976H156.501C157.062 179.976 157.622 180.321 158.226 181.01C158.916 181.7 159.26 182.347 159.26 182.907Z" fill="black"/>
<path d="M186.726 233.781C186.726 234.385 186.898 234.988 187.243 235.678C187.588 236.282 187.976 236.799 188.45 237.23C189.011 237.705 189.571 238.093 190.175 238.438C190.735 238.782 191.295 239.041 191.899 239.127H243.631C244.191 239.041 244.752 238.782 245.355 238.438C245.916 238.093 246.433 237.705 246.907 237.23C247.468 236.799 247.942 236.282 248.287 235.678C248.632 234.988 248.804 234.385 248.804 233.781V174.112H225.352V230.332C225.352 230.936 225.007 231.539 224.318 232.229C223.714 232.919 223.154 233.264 222.593 233.264H212.937C212.333 233.264 211.73 232.919 211.04 232.229C210.436 231.539 210.178 230.936 210.178 230.332V174.112H186.726V233.781Z" fill="black"/>
<path d="M305.239 205.844L315.586 174.112H292.134L283.34 200.67L274.718 174.112H251.266L261.612 205.844L251.266 239.127H274.718L283.34 211.19L292.134 239.127H315.586L305.239 205.844Z" fill="black"/>
<path d="M318.065 174.112H341.517V239.127H318.065V174.112Z" fill="black"/>
<path d="M368.967 174.112H345.515V239.127H407.594V219.123H384.142V233.264H368.967V174.112Z" fill="black"/>
<path d="M411.607 174.112H435.059V239.127H411.607V174.112Z" fill="black"/>
<path d="M439.057 233.781C439.057 234.385 439.23 234.988 439.575 235.678C439.92 236.282 440.308 236.799 440.782 237.23C441.342 237.705 441.903 238.093 442.506 238.438C443.067 238.782 443.627 239.041 444.231 239.127H495.963C496.523 239.041 497.083 238.782 497.687 238.438C498.247 238.093 498.765 237.705 499.239 237.23C499.799 236.799 500.274 236.282 500.618 235.678C500.963 234.988 501.136 234.385 501.136 233.781V174.112H477.684V230.332C477.684 230.936 477.339 231.539 476.649 232.229C476.046 232.919 475.485 233.264 474.925 233.264H465.268C464.665 233.264 464.061 232.919 463.371 232.229C462.768 231.539 462.509 230.936 462.509 230.332V174.112H439.057V233.781Z" fill="black"/>
<path d="M505.149 174.112V239.127H528.601V179.976H537.74C538.301 179.976 538.861 180.321 539.465 181.01C540.155 181.7 540.499 182.347 540.499 182.907V239.127H563.951V179.976H573.263C573.694 179.976 574.211 180.321 574.815 181.01C575.505 181.7 575.85 182.347 575.85 182.907V239.127H599.301V179.458C599.301 178.898 599.129 178.337 598.784 177.734C598.439 177.044 597.965 176.484 597.405 176.009C596.93 175.578 596.413 175.147 595.853 174.802C595.249 174.457 594.689 174.242 594.128 174.112H505.149Z" fill="black"/>
<mask id="mask0_24_179" style="mask-type:luminance" maskUnits="userSpaceOnUse" x="11" y="55" width="265" height="188">
<path d="M11.0361 55.1853H275.904V242.815H11.0361V55.1853Z" fill="white"/>
</mask>
<g mask="url(#mask0_24_179)">
<mask id="mask1_24_179" style="mask-type:luminance" maskUnits="userSpaceOnUse" x="0" y="8" width="294" height="286">
<path d="M74.0629 8.88159L293.449 88.081L219.386 293.215L-7.62939e-06 214.015L74.0629 8.88159Z" fill="white"/>
</mask>
<g mask="url(#mask1_24_179)">
<mask id="mask2_24_179" style="mask-type:luminance" maskUnits="userSpaceOnUse" x="0" y="8" width="294" height="286">
<path d="M74.0629 8.88159L293.449 88.081L219.386 293.215L-7.62939e-06 214.015L74.0629 8.88159Z" fill="white"/>
</mask>
<g mask="url(#mask2_24_179)">
<path fill-rule="evenodd" clip-rule="evenodd" d="M226.801 64.0667L226.888 64.1529L191.882 131.41L271.506 148.655V148.914L179.812 148.741L169.206 160.856L169.12 160.943L169.077 160.899L152.006 157.235L151.876 157.192L151.963 157.062L157.437 146.456L144.505 143.654L144.375 143.611L144.418 143.482L151.876 129.168L151.919 129.082H152.006L169.508 129.125L226.672 63.9805L226.801 64.0667ZM170.802 88.3396L135.753 155.769L215.507 173.057L123.812 172.885L66.6048 238.072L101.696 170.643L21.8998 153.355L113.595 153.527L170.802 88.3396ZM133.339 154.519L158.127 106.921L115.621 155.295L114.845 156.2H113.595L47.2916 156.114L102.257 168.013L105.706 168.746L104.067 171.893L79.3223 219.491L121.786 171.117L122.605 170.212H123.812L190.115 170.298L135.15 158.399L131.701 157.666L133.339 154.519ZM156.618 175.17L122.648 213.843L122.475 213.713L142.608 175.041V174.954H142.694L156.532 174.998H156.791L156.618 175.17ZM123.467 139.084L77.8134 129.211L77.8565 128.952L132.089 129.082L132.348 129.039L132.175 129.254L123.596 139.041L123.553 139.127L123.467 139.084Z" fill="#FF2E00"/>
</g>
</g>
</g>
</svg>
