<svg width="380" height="115" viewBox="0 0 380 115" fill="none" xmlns="http://www.w3.org/2000/svg">
<g clip-path="url(#clip0_156_3)">
<path d="M62.674 74.0883V112.299H77.6001V97.6112H87.2582V112.299H102.184V74.0883C102.184 73.8122 102.075 73.4809 101.855 73.0944C101.636 72.6526 101.361 72.2937 101.087 71.99C100.785 71.6311 100.428 71.3274 99.9894 71.1065C99.6052 70.8304 99.276 70.6648 99.0016 70.6648H65.8567C65.4726 70.6648 65.1159 70.8304 64.7592 71.1065C64.3751 71.3274 64.0458 71.6311 63.7715 71.99C63.4696 72.2937 63.2227 72.6526 63.0032 73.0944C62.7837 73.4809 62.674 73.8122 62.674 74.0883ZM87.2582 76.297V93.8564H77.6001V76.297C77.6001 75.9381 77.7647 75.524 78.1489 75.0822C78.5879 74.6405 78.972 74.4196 79.3561 74.4196H85.5022C85.8589 74.4196 86.2156 74.6405 86.5997 75.0822C87.0387 75.524 87.2582 75.9381 87.2582 76.297Z" fill="#FF2E00"/>
<path d="M104.739 108.876C104.739 109.262 104.849 109.649 105.068 110.09C105.288 110.477 105.535 110.808 105.837 111.084C106.193 111.388 106.55 111.637 106.934 111.857C107.291 112.078 107.647 112.244 108.032 112.299H140.957C141.314 112.244 141.67 112.078 142.054 111.857C142.411 111.637 142.74 111.388 143.042 111.084C143.399 110.808 143.701 110.477 143.92 110.09C144.14 109.649 144.249 109.262 144.249 108.876V70.6648H129.323V106.667C129.323 107.053 129.104 107.44 128.665 107.882C128.281 108.323 127.924 108.544 127.567 108.544H121.421C121.037 108.544 120.653 108.323 120.214 107.882C119.83 107.44 119.665 107.053 119.665 106.667V70.6648H104.739V108.876Z" fill="#FF2E00"/>
<path d="M180.168 90.985L186.753 70.6648H171.827L166.23 87.6719L160.742 70.6648H145.816L152.401 90.985L145.816 112.299H160.742L166.23 94.4085L171.827 112.299H186.753L180.168 90.985Z" fill="#FF2E00"/>
<path d="M188.331 70.6648H203.257V112.299H188.331V70.6648Z" fill="#FF2E00"/>
<path d="M220.728 70.6648H205.802V112.299H245.313V99.4886H230.387V108.544H220.728V70.6648Z" fill="#FF2E00"/>
<path d="M247.867 70.6648H262.793V112.299H247.867V70.6648Z" fill="#FF2E00"/>
<path d="M265.338 108.876C265.338 109.262 265.448 109.649 265.668 110.09C265.887 110.477 266.134 110.808 266.436 111.084C266.793 111.388 267.149 111.637 267.533 111.857C267.89 112.078 268.247 112.244 268.631 112.299H301.556C301.913 112.244 302.27 112.078 302.654 111.857C303.01 111.637 303.34 111.388 303.642 111.084C303.998 110.808 304.3 110.477 304.52 110.09C304.739 109.649 304.849 109.262 304.849 108.876V70.6648H289.923V106.667C289.923 107.053 289.703 107.44 289.264 107.882C288.88 108.323 288.523 108.544 288.167 108.544H282.021C281.636 108.544 281.252 108.323 280.813 107.882C280.429 107.44 280.265 107.053 280.265 106.667V70.6648H265.338V108.876Z" fill="#FF2E00"/>
<path d="M307.403 70.6648V112.299H322.329V74.4196H328.146C328.503 74.4196 328.859 74.6405 329.244 75.0822C329.683 75.524 329.902 75.9381 329.902 76.297V112.299H344.828V74.4196H350.755C351.029 74.4196 351.358 74.6405 351.743 75.0822C352.182 75.524 352.401 75.9381 352.401 76.297V112.299H367.327V74.0883C367.327 73.7294 367.217 73.3705 366.998 72.984C366.778 72.5422 366.477 72.1833 366.12 71.8796C365.818 71.6035 365.489 71.3274 365.132 71.1065C364.748 70.8857 364.391 70.7476 364.035 70.6648H307.403Z" fill="#FF2E00"/>
<mask id="mask0_156_3" style="mask-type:luminance" maskUnits="userSpaceOnUse" x="-8" y="-6" width="170" height="121">
<path d="M-7.08081 -5.49377H161.497V114.661H-7.08081V-5.49377Z" fill="white"/>
</mask>
<g mask="url(#mask0_156_3)">
<mask id="mask1_156_3" style="mask-type:luminance" maskUnits="userSpaceOnUse" x="-15" y="-36" width="188" height="183">
<path d="M33.0333 -35.1459L172.664 15.5718L125.526 146.935L-14.1049 96.2177L33.0333 -35.1459Z" fill="white"/>
</mask>
<g mask="url(#mask1_156_3)">
<mask id="mask2_156_3" style="mask-type:luminance" maskUnits="userSpaceOnUse" x="-15" y="-36" width="188" height="183">
<path d="M33.0333 -35.1459L172.664 15.5718L125.526 146.935L-14.1049 96.2177L33.0333 -35.1459Z" fill="white"/>
</mask>
<g mask="url(#mask2_156_3)">
<path fill-rule="evenodd" clip-rule="evenodd" d="M130.245 0.193649L130.3 0.248864L108.021 43.3189L158.698 54.3625V54.5281L100.338 54.4177L93.5885 62.1758L93.5336 62.231L93.5062 62.2034L82.6408 59.8567L82.5585 59.8291L82.6134 59.7462L86.098 52.9544L77.8666 51.1598L77.7843 51.1322L77.8118 51.0494L82.5585 41.8832L82.5859 41.828H82.6408L93.7806 41.8556L130.163 0.138428L130.245 0.193649ZM94.6037 15.7375L72.2968 58.918L123.057 69.9892L64.6965 69.8787L28.2865 111.624L50.6209 68.4431L-0.166504 57.3719L58.1937 57.4823L94.6037 15.7375ZM70.7602 58.1173L86.537 27.637L59.4833 58.6143L58.9894 59.194H58.1937L15.9944 59.1388L50.9776 66.7589L53.1726 67.2283L52.13 69.2437L36.3807 99.724L63.4069 68.7468L63.9282 68.167H64.6965L106.896 68.2222L71.9126 60.6021L69.7176 60.1328L70.7602 58.1173ZM85.5767 71.342L63.9557 96.1073L63.8459 96.0244L76.6594 71.2592V71.204H76.7142L85.5218 71.2316H85.6864L85.5767 71.342ZM64.477 48.2333L35.4203 41.9108L35.4478 41.7452L69.9645 41.828L70.1292 41.8004L70.0194 41.9384L64.5593 48.2057L64.5319 48.2609L64.477 48.2333Z" fill="#FF2E00"/>
</g>
</g>
</g>
</g>
<defs>
<clipPath id="clip0_156_3">
<rect width="380" height="115" fill="white"/>
</clipPath>
</defs>
</svg>
