<svg width="125" height="25" viewBox="0 0 125 25" fill="none" xmlns="http://www.w3.org/2000/svg">
<path d="M12.5 1.61804L14.8309 8.7918L14.9432 9.13729H15.3064H22.8494L16.747 13.5709L16.4531 13.7844L16.5654 14.1299L18.8963 21.3037L12.7939 16.8701L12.5 16.6565L12.2061 16.8701L6.10374 21.3037L8.43464 14.1299L8.54689 13.7844L8.253 13.5709L2.15064 9.13729H9.69357H10.0568L10.1691 8.7918L12.5 1.61804Z" fill="black"/>
<path d="M12.5 1.61804L14.8309 8.7918L14.9432 9.13729H15.3064H22.8494L16.747 13.5709L16.4531 13.7844L16.5654 14.1299L18.8963 21.3037L12.7939 16.8701L12.5 16.6565L12.2061 16.8701L6.10374 21.3037L8.43464 14.1299L8.54689 13.7844L8.253 13.5709L2.15064 9.13729H9.69357H10.0568L10.1691 8.7918L12.5 1.61804Z" fill="black" fill-opacity="0.2"/>
<path d="M12.5 1.61804L14.8309 8.7918L14.9432 9.13729H15.3064H22.8494L16.747 13.5709L16.4531 13.7844L16.5654 14.1299L18.8963 21.3037L12.7939 16.8701L12.5 16.6565L12.2061 16.8701L6.10374 21.3037L8.43464 14.1299L8.54689 13.7844L8.253 13.5709L2.15064 9.13729H9.69357H10.0568L10.1691 8.7918L12.5 1.61804Z" stroke="black"/>
<path d="M37.5 1.61804L39.8309 8.7918L39.9432 9.13729H40.3064H47.8494L41.747 13.5709L41.4531 13.7844L41.5654 14.1299L43.8963 21.3037L37.7939 16.8701L37.5 16.6565L37.2061 16.8701L31.1037 21.3037L33.4346 14.1299L33.5469 13.7844L33.253 13.5709L27.1506 9.13729H34.6936H35.0568L35.1691 8.7918L37.5 1.61804Z" fill="black"/>
<path d="M37.5 1.61804L39.8309 8.7918L39.9432 9.13729H40.3064H47.8494L41.747 13.5709L41.4531 13.7844L41.5654 14.1299L43.8963 21.3037L37.7939 16.8701L37.5 16.6565L37.2061 16.8701L31.1037 21.3037L33.4346 14.1299L33.5469 13.7844L33.253 13.5709L27.1506 9.13729H34.6936H35.0568L35.1691 8.7918L37.5 1.61804Z" fill="black" fill-opacity="0.2"/>
<path d="M37.5 1.61804L39.8309 8.7918L39.9432 9.13729H40.3064H47.8494L41.747 13.5709L41.4531 13.7844L41.5654 14.1299L43.8963 21.3037L37.7939 16.8701L37.5 16.6565L37.2061 16.8701L31.1037 21.3037L33.4346 14.1299L33.5469 13.7844L33.253 13.5709L27.1506 9.13729H34.6936H35.0568L35.1691 8.7918L37.5 1.61804Z" stroke="black"/>
<path d="M62.5 1.61804L64.8309 8.7918L64.9432 9.13729H65.3064H72.8494L66.747 13.5709L66.4531 13.7844L66.5654 14.1299L68.8963 21.3037L62.7939 16.8701L62.5 16.6565L62.2061 16.8701L56.1037 21.3037L58.4346 14.1299L58.5469 13.7844L58.253 13.5709L52.1506 9.13729H59.6936H60.0568L60.1691 8.7918L62.5 1.61804Z" fill="black"/>
<path d="M62.5 1.61804L64.8309 8.7918L64.9432 9.13729H65.3064H72.8494L66.747 13.5709L66.4531 13.7844L66.5654 14.1299L68.8963 21.3037L62.7939 16.8701L62.5 16.6565L62.2061 16.8701L56.1037 21.3037L58.4346 14.1299L58.5469 13.7844L58.253 13.5709L52.1506 9.13729H59.6936H60.0568L60.1691 8.7918L62.5 1.61804Z" fill="black" fill-opacity="0.2"/>
<path d="M62.5 1.61804L64.8309 8.7918L64.9432 9.13729H65.3064H72.8494L66.747 13.5709L66.4531 13.7844L66.5654 14.1299L68.8963 21.3037L62.7939 16.8701L62.5 16.6565L62.2061 16.8701L56.1037 21.3037L58.4346 14.1299L58.5469 13.7844L58.253 13.5709L52.1506 9.13729H59.6936H60.0568L60.1691 8.7918L62.5 1.61804Z" stroke="black"/>
<path d="M87.5 1.61804L89.8309 8.7918L89.9432 9.13729H90.3064H97.8494L91.747 13.5709L91.4531 13.7844L91.5654 14.1299L93.8963 21.3037L87.7939 16.8701L87.5 16.6565L87.2061 16.8701L81.1037 21.3037L83.4346 14.1299L83.5469 13.7844L83.253 13.5709L77.1506 9.13729H84.6936H85.0568L85.1691 8.7918L87.5 1.61804Z" fill="black"/>
<path d="M87.5 1.61804L89.8309 8.7918L89.9432 9.13729H90.3064H97.8494L91.747 13.5709L91.4531 13.7844L91.5654 14.1299L93.8963 21.3037L87.7939 16.8701L87.5 16.6565L87.2061 16.8701L81.1037 21.3037L83.4346 14.1299L83.5469 13.7844L83.253 13.5709L77.1506 9.13729H84.6936H85.0568L85.1691 8.7918L87.5 1.61804Z" fill="black" fill-opacity="0.2"/>
<path d="M87.5 1.61804L89.8309 8.7918L89.9432 9.13729H90.3064H97.8494L91.747 13.5709L91.4531 13.7844L91.5654 14.1299L93.8963 21.3037L87.7939 16.8701L87.5 16.6565L87.2061 16.8701L81.1037 21.3037L83.4346 14.1299L83.5469 13.7844L83.253 13.5709L77.1506 9.13729H84.6936H85.0568L85.1691 8.7918L87.5 1.61804Z" stroke="black"/>
<path d="M112.5 1.61804L114.831 8.7918L114.943 9.13729H115.306H122.849L116.747 13.5709L116.453 13.7844L116.565 14.1299L118.896 21.3037L112.794 16.8701L112.5 16.6565L112.206 16.8701L106.104 21.3037L108.435 14.1299L108.547 13.7844L108.253 13.5709L102.151 9.13729H109.694H110.057L110.169 8.7918L112.5 1.61804Z" fill="black"/>
<path d="M112.5 1.61804L114.831 8.7918L114.943 9.13729H115.306H122.849L116.747 13.5709L116.453 13.7844L116.565 14.1299L118.896 21.3037L112.794 16.8701L112.5 16.6565L112.206 16.8701L106.104 21.3037L108.435 14.1299L108.547 13.7844L108.253 13.5709L102.151 9.13729H109.694H110.057L110.169 8.7918L112.5 1.61804Z" fill="black" fill-opacity="0.2"/>
<path d="M112.5 1.61804L114.831 8.7918L114.943 9.13729H115.306H122.849L116.747 13.5709L116.453 13.7844L116.565 14.1299L118.896 21.3037L112.794 16.8701L112.5 16.6565L112.206 16.8701L106.104 21.3037L108.435 14.1299L108.547 13.7844L108.253 13.5709L102.151 9.13729H109.694H110.057L110.169 8.7918L112.5 1.61804Z" stroke="black"/>
</svg>
