<svg width="1440" height="589" viewBox="0 0 1440 589" fill="none" xmlns="http://www.w3.org/2000/svg">
<g clip-path="url(#clip0_25_444)">
<path d="M0 55L21.92 51C43.68 47 87.52 39 131.2 35C174.88 31 218.72 31 262.08 31C305.6 31 348.8 31 392.32 32C435.68 33 479.52 35 523.2 39C566.88 43 610.72 49 654.4 49C698.08 49 741.92 43 785.6 49C829.28 55 873.12 73 916.8 81C960.48 89 1004.32 87 1047.68 82C1091.2 77 1134.4 69 1177.92 61C1221.28 53 1265.12 45 1308.8 47C1352.48 49 1396.32 61 1418.08 67L1440 73V0H1418.08C1396.32 0 1352.48 0 1308.8 0C1265.12 0 1221.28 0 1177.92 0C1134.4 0 1091.2 0 1047.68 0C1004.32 0 960.48 0 916.8 0C873.12 0 829.28 0 785.6 0C741.92 0 698.08 0 654.4 0C610.72 0 566.88 0 523.2 0C479.52 0 435.68 0 392.32 0C348.8 0 305.6 0 262.08 0C218.72 0 174.88 0 131.2 0C87.52 0 43.68 0 21.92 0H0V55Z" fill="#FF7251"/>
<path d="M0 115L21.92 109C43.68 103 87.52 91 131.2 83C174.88 75 218.72 71 262.08 71C305.6 71 348.8 75 392.32 77C435.68 79 479.52 79 523.2 86C566.88 93 610.72 107 654.4 111C698.08 115 741.92 109 785.6 112C829.28 115 873.12 127 916.8 128C960.48 129 1004.32 119 1047.68 116C1091.2 113 1134.4 117 1177.92 110C1221.28 103 1265.12 85 1308.8 87C1352.48 89 1396.32 111 1418.08 122L1440 133V71L1418.08 65C1396.32 59 1352.48 47 1308.8 45C1265.12 43 1221.28 51 1177.92 59C1134.4 67 1091.2 75 1047.68 80C1004.32 85 960.48 87 916.8 79C873.12 71 829.28 53 785.6 47C741.92 41 698.08 47 654.4 47C610.72 47 566.88 41 523.2 37C479.52 33 435.68 31 392.32 30C348.8 29 305.6 29 262.08 29C218.72 29 174.88 29 131.2 33C87.52 37 43.68 45 21.92 49L0 53V115Z" fill="#FB5E3A"/>
<path d="M0 193L21.92 187C43.68 181 87.52 169 131.2 166C174.88 163 218.72 169 262.08 174C305.6 179 348.8 183 392.32 181C435.68 179 479.52 171 523.2 171C566.88 171 610.72 179 654.4 177C698.08 175 741.92 163 785.6 166C829.28 169 873.12 187 916.8 195C960.48 203 1004.32 201 1047.68 204C1091.2 207 1134.4 215 1177.92 202C1221.28 189 1265.12 155 1308.8 152C1352.48 149 1396.32 177 1418.08 191L1440 205V131L1418.08 120C1396.32 109 1352.48 87 1308.8 85C1265.12 83 1221.28 101 1177.92 108C1134.4 115 1091.2 111 1047.68 114C1004.32 117 960.48 127 916.8 126C873.12 125 829.28 113 785.6 110C741.92 107 698.08 113 654.4 109C610.72 105 566.88 91 523.2 84C479.52 77 435.68 77 392.32 75C348.8 73 305.6 69 262.08 69C218.72 69 174.88 73 131.2 81C87.52 89 43.68 101 21.92 107L0 113V193Z" fill="#F54722"/>
<path d="M0 313L21.92 304C43.68 295 87.52 277 131.2 284C174.88 291 218.72 323 262.08 341C305.6 359 348.8 363 392.32 351C435.68 339 479.52 311 523.2 303C566.88 295 610.72 307 654.4 308C698.08 309 741.92 299 785.6 309C829.28 319 873.12 349 916.8 349C960.48 349 1004.32 319 1047.68 315C1091.2 311 1134.4 333 1177.92 341C1221.28 349 1265.12 343 1308.8 358C1352.48 373 1396.32 409 1418.08 427L1440 445V203L1418.08 189C1396.32 175 1352.48 147 1308.8 150C1265.12 153 1221.28 187 1177.92 200C1134.4 213 1091.2 205 1047.68 202C1004.32 199 960.48 201 916.8 193C873.12 185 829.28 167 785.6 164C741.92 161 698.08 173 654.4 175C610.72 177 566.88 169 523.2 169C479.52 169 435.68 177 392.32 179C348.8 181 305.6 177 262.08 172C218.72 167 174.88 161 131.2 164C87.52 167 43.68 179 21.92 185L0 191V313Z" fill="#EF2B00"/>
<path d="M0 349L21.92 344C43.68 339 87.52 329 131.2 335C174.88 341 218.72 363 262.08 376C305.6 389 348.8 393 392.32 385C435.68 377 479.52 357 523.2 353C566.88 349 610.72 361 654.4 357C698.08 353 741.92 333 785.6 339C829.28 345 873.12 377 916.8 381C960.48 385 1004.32 361 1047.68 358C1091.2 355 1134.4 373 1177.92 386C1221.28 399 1265.12 407 1308.8 420C1352.48 433 1396.32 451 1418.08 460L1440 469V443L1418.08 425C1396.32 407 1352.48 371 1308.8 356C1265.12 341 1221.28 347 1177.92 339C1134.4 331 1091.2 309 1047.68 313C1004.32 317 960.48 347 916.8 347C873.12 347 829.28 317 785.6 307C741.92 297 698.08 307 654.4 306C610.72 305 566.88 293 523.2 301C479.52 309 435.68 337 392.32 349C348.8 361 305.6 357 262.08 339C218.72 321 174.88 289 131.2 282C87.52 275 43.68 293 21.92 302L0 311V349Z" fill="#DA2606"/>
<path d="M0 517L21.92 516C43.68 515 87.52 513 131.2 512C174.88 511 218.72 511 262.08 520C305.6 529 348.8 547 392.32 548C435.68 549 479.52 533 523.2 527C566.88 521 610.72 525 654.4 525C698.08 525 741.92 521 785.6 517C829.28 513 873.12 509 916.8 507C960.48 505 1004.32 505 1047.68 509C1091.2 513 1134.4 521 1177.92 527C1221.28 533 1265.12 537 1308.8 542C1352.48 547 1396.32 553 1418.08 556L1440 559V467L1418.08 458C1396.32 449 1352.48 431 1308.8 418C1265.12 405 1221.28 397 1177.92 384C1134.4 371 1091.2 353 1047.68 356C1004.32 359 960.48 383 916.8 379C873.12 375 829.28 343 785.6 337C741.92 331 698.08 351 654.4 355C610.72 359 566.88 347 523.2 351C479.52 355 435.68 375 392.32 383C348.8 391 305.6 387 262.08 374C218.72 361 174.88 339 131.2 333C87.52 327 43.68 337 21.92 342L0 347V517Z" fill="#C5220A"/>
<path d="M0 601H21.92C43.68 601 87.52 601 131.2 601C174.88 601 218.72 601 262.08 601C305.6 601 348.8 601 392.32 601C435.68 601 479.52 601 523.2 601C566.88 601 610.72 601 654.4 601C698.08 601 741.92 601 785.6 601C829.28 601 873.12 601 916.8 601C960.48 601 1004.32 601 1047.68 601C1091.2 601 1134.4 601 1177.92 601C1221.28 601 1265.12 601 1308.8 601C1352.48 601 1396.32 601 1418.08 601H1440V557L1418.08 554C1396.32 551 1352.48 545 1308.8 540C1265.12 535 1221.28 531 1177.92 525C1134.4 519 1091.2 511 1047.68 507C1004.32 503 960.48 503 916.8 505C873.12 507 829.28 511 785.6 515C741.92 519 698.08 523 654.4 523C610.72 523 566.88 519 523.2 525C479.52 531 435.68 547 392.32 546C348.8 545 305.6 527 262.08 518C218.72 509 174.88 509 131.2 510C87.52 511 43.68 513 21.92 514L0 515V601Z" fill="#B01E0C"/>
</g>
<defs>
<clipPath id="clip0_25_444">
<rect width="1440" height="600" fill="white"/>
</clipPath>
</defs>
</svg>
